<svg width="77" height="25" viewBox="0 0 77 25" fill="none" xmlns="http://www.w3.org/2000/svg">
<path d="M10.2476 20.5566C9.57699 20.5566 8.93245 20.4102 8.31396 20.1172C7.70199 19.8307 7.15511 19.3587 6.67334 18.7012C6.11995 19.4889 5.53402 19.9902 4.91553 20.2051C4.30355 20.4264 3.64925 20.5371 2.95264 20.5371C2.46436 20.5371 2.03141 20.4167 1.65381 20.1758C1.28271 19.9349 0.989746 19.6354 0.774902 19.2773C0.560059 18.9193 0.452637 18.5612 0.452637 18.2031C0.452637 17.8255 0.550293 17.5391 0.745605 17.3438C0.940918 17.1419 1.19157 17.0052 1.49756 16.9336C1.81006 16.8555 2.12907 16.8164 2.45459 16.8164C2.45459 16.9792 2.44157 17.1452 2.41553 17.3145C2.396 17.4772 2.38623 17.653 2.38623 17.8418C2.38623 18.291 2.45785 18.6979 2.60107 19.0625C2.7443 19.4206 3.06006 19.5996 3.54834 19.5996C3.79574 19.5996 4.03662 19.515 4.271 19.3457C4.51188 19.1764 4.70394 18.929 4.84717 18.6035C4.93831 18.4147 5.1141 17.9785 5.37451 17.2949C5.64144 16.6113 5.94092 15.5794 6.27295 14.1992L7.43506 8.20312C7.47412 8.08594 7.57503 8.0013 7.73779 7.94922C7.90706 7.89714 8.0861 7.86458 8.2749 7.85156C8.4637 7.83203 8.60368 7.82227 8.69482 7.82227H9.61279C9.43701 8.83789 9.28727 9.86003 9.16357 10.8887C9.03988 11.9173 8.85107 12.972 8.59717 14.0527C8.34326 15.127 7.93311 16.25 7.3667 17.4219C7.49691 17.806 7.7085 18.151 8.00146 18.457C8.30094 18.7565 8.64274 18.9941 9.02686 19.1699C9.41097 19.3392 9.79183 19.4238 10.1694 19.4238C10.7489 19.4238 11.3185 19.2643 11.8784 18.9453C12.4383 18.6263 12.9429 18.1706 13.3921 17.5781C13.8478 16.9792 14.2091 16.2663 14.4761 15.4395C14.7495 14.6061 14.8862 13.6784 14.8862 12.6562C14.8862 11.8229 14.7788 11.0319 14.564 10.2832C14.3491 9.52799 14.0138 8.86068 13.5581 8.28125C13.1024 7.69531 12.5099 7.23633 11.7808 6.9043C11.0581 6.56576 10.189 6.39648 9.17334 6.39648C8.44417 6.39648 7.72477 6.50716 7.01514 6.72852C6.31201 6.94987 5.67074 7.24284 5.09131 7.60742C4.51839 7.97201 4.05941 8.3724 3.71436 8.80859C3.37581 9.24479 3.20654 9.67448 3.20654 10.0977C3.20654 10.4362 3.33024 10.7585 3.57764 11.0645C3.82503 11.3704 4.23519 11.6341 4.80811 11.8555C4.80811 12.1745 4.77881 12.4967 4.72021 12.8223C4.66162 13.1413 4.60628 13.3464 4.5542 13.4375C3.54508 13.1185 2.80615 12.6693 2.3374 12.0898C1.86865 11.5039 1.63428 10.8822 1.63428 10.2246C1.63428 9.63216 1.8068 9.03971 2.15186 8.44727C2.50342 7.85482 3.03727 7.3112 3.75342 6.81641C4.46956 6.32161 5.38428 5.92448 6.49756 5.625C7.61084 5.32552 8.9292 5.17578 10.4526 5.17578C11.6636 5.17578 12.7085 5.38086 13.5874 5.79102C14.4663 6.20117 15.1857 6.74154 15.7456 7.41211C16.312 8.07617 16.7287 8.80208 16.9956 9.58984C17.269 10.3776 17.4058 11.1491 17.4058 11.9043C17.4058 13.0957 17.2267 14.2155 16.8687 15.2637C16.5106 16.3053 16.006 17.2233 15.355 18.0176C14.7104 18.8118 13.952 19.4336 13.0796 19.8828C12.2137 20.332 11.2697 20.5566 10.2476 20.5566ZM20.6772 20.3027C19.8895 20.3027 19.2612 20.0423 18.7925 19.5215C18.3237 19.0007 18.0894 18.3203 18.0894 17.4805C18.0894 16.7773 18.2033 16.0872 18.4312 15.4102C18.6655 14.7331 18.9943 14.1243 19.4175 13.584C19.8472 13.0371 20.355 12.6042 20.9409 12.2852C21.5269 11.9596 22.1746 11.7969 22.8843 11.7969C23.5223 11.7969 24.0659 11.9206 24.5151 12.168C24.9644 12.4154 25.189 12.8646 25.189 13.5156C25.189 14.0169 25.0457 14.4792 24.7593 14.9023C24.4793 15.319 24.118 15.6543 23.6753 15.9082C23.2326 16.1556 22.7638 16.2793 22.269 16.2793C21.9956 16.2793 21.6929 16.1979 21.3608 16.0352C21.0353 15.8724 20.7489 15.6022 20.5015 15.2246C20.2215 15.8105 20.0815 16.3835 20.0815 16.9434C20.0815 17.334 20.1271 17.7018 20.2183 18.0469C20.3159 18.3854 20.4852 18.6621 20.7261 18.877C20.967 19.0918 21.299 19.1992 21.7222 19.1992C22.0282 19.1992 22.37 19.0755 22.7476 18.8281C23.1252 18.5807 23.5158 18.2715 23.9194 17.9004C24.3231 17.5228 24.717 17.1387 25.1011 16.748C25.4852 16.3574 25.8335 16.0156 26.146 15.7227V16.7969C25.2476 17.8516 24.3491 18.7012 23.4507 19.3457C22.5588 19.9837 21.6343 20.3027 20.6772 20.3027ZM22.4253 15.4395C22.8094 15.4395 23.1382 15.2507 23.4116 14.873C23.6851 14.4954 23.8218 14.0788 23.8218 13.623C23.8218 13.252 23.7404 13.0013 23.5776 12.8711C23.4149 12.7409 23.1903 12.6758 22.9038 12.6758C22.5197 12.6758 22.1812 12.7865 21.8882 13.0078C21.5952 13.2292 21.3543 13.4831 21.1655 13.7695C20.9832 14.0495 20.8563 14.2871 20.7847 14.4824C21.0125 14.7819 21.2697 15.0163 21.5562 15.1855C21.8491 15.3548 22.1388 15.4395 22.4253 15.4395ZM27.3862 20.2832C26.9761 20.2832 26.631 20.0195 26.3511 19.4922C26.0776 18.9583 25.8693 18.265 25.7261 17.4121C25.5894 16.5592 25.521 15.6543 25.521 14.6973C25.521 14.515 25.5243 14.2285 25.5308 13.8379C25.5438 13.4473 25.5828 13.0339 25.6479 12.5977C25.661 12.4805 25.7456 12.3893 25.9019 12.3242C26.0646 12.2526 26.2437 12.2038 26.439 12.1777C26.6408 12.1517 26.8166 12.1354 26.9663 12.1289C27.116 12.1224 27.1877 12.1191 27.1812 12.1191H27.9624C27.9233 12.3275 27.881 12.6139 27.8354 12.9785C27.7899 13.3431 27.7476 13.7337 27.7085 14.1504C27.6759 14.5671 27.6597 14.9577 27.6597 15.3223C27.6597 15.9538 27.7085 16.5397 27.8062 17.0801C27.9038 17.6139 28.0275 18.0436 28.1772 18.3691C28.3335 18.6947 28.4897 18.8574 28.646 18.8574C28.7437 18.8574 28.8576 18.776 28.9878 18.6133C29.1245 18.4505 29.2645 18.2552 29.4077 18.0273C29.5575 17.7995 29.6942 17.5781 29.8179 17.3633C29.9416 17.1484 30.036 16.9889 30.1011 16.8848C30.0881 16.8848 30.0815 16.7904 30.0815 16.6016C30.0815 16.1589 30.1108 15.6641 30.1694 15.1172C30.2345 14.5703 30.3289 14.0462 30.4526 13.5449C30.5828 13.0371 30.7489 12.6204 30.9507 12.2949C31.159 11.9629 31.4097 11.7969 31.7026 11.7969C31.8849 11.7969 32.0119 11.8848 32.0835 12.0605C32.1616 12.2298 32.2007 12.4577 32.2007 12.7441C32.2007 13.1152 32.1519 13.5449 32.0542 14.0332C31.9565 14.5215 31.8426 15.0033 31.7124 15.4785C31.5822 15.9473 31.4585 16.3574 31.3413 16.709C31.2241 17.0605 31.146 17.2852 31.1069 17.3828L31.3022 17.9199C31.5106 17.8809 31.8231 17.6562 32.2397 17.2461C32.6564 16.8294 33.1903 16.2956 33.8413 15.6445V16.7383C33.5158 17.0768 33.1903 17.4089 32.8647 17.7344C32.5457 18.0534 32.243 18.3171 31.9565 18.5254C31.6766 18.7337 31.4325 18.8379 31.2241 18.8379C31.0939 18.8379 30.9604 18.7402 30.8237 18.5449C30.687 18.3431 30.5731 18.1413 30.4819 17.9395C30.202 18.4408 29.9351 18.8672 29.6812 19.2188C29.4272 19.5638 29.1245 19.8275 28.7729 20.0098C28.4214 20.1921 27.9591 20.2832 27.3862 20.2832ZM38.7046 20.5566C37.8062 20.5566 37.0282 20.3841 36.3706 20.0391C35.7131 19.7005 35.1727 19.2448 34.7495 18.6719C34.3263 18.0924 34.0106 17.4447 33.8022 16.7285C33.5939 16.0124 33.4897 15.2767 33.4897 14.5215C33.4897 13.7467 33.5972 12.9297 33.812 12.0703C34.0334 11.2109 34.3654 10.3743 34.8081 9.56055C35.2573 8.74674 35.8205 8.01107 36.4976 7.35352C37.1746 6.68945 37.9722 6.16211 38.8901 5.77148C39.8146 5.37435 40.8595 5.17578 42.0249 5.17578C42.689 5.17578 43.2847 5.33529 43.812 5.6543C44.3394 5.9668 44.756 6.37695 45.062 6.88477C45.3745 7.39258 45.5308 7.92969 45.5308 8.49609C45.5308 8.66536 45.5047 8.8151 45.4526 8.94531C45.4071 9.06901 45.3127 9.16667 45.1694 9.23828C44.7463 9.45312 44.2515 9.72005 43.6851 10.0391C43.1187 10.3516 42.5522 10.6641 41.9858 10.9766C41.4194 11.2826 40.9214 11.5365 40.4917 11.7383C40.4136 11.7773 40.3387 11.7969 40.2671 11.7969C40.1629 11.7969 40.0783 11.7578 40.0132 11.6797C39.9546 11.5951 39.9253 11.5007 39.9253 11.3965C39.9253 11.2337 40.0425 11.071 40.2769 10.9082C40.5112 10.7454 40.7977 10.5827 41.1362 10.4199C41.4813 10.2507 41.8263 10.0814 42.1714 9.91211C42.5164 9.73633 42.8062 9.55404 43.0405 9.36523C43.2749 9.17643 43.3921 8.98112 43.3921 8.7793C43.3856 8.7793 43.3563 8.64909 43.3042 8.38867C43.2521 8.12174 43.1642 7.81576 43.0405 7.4707C42.9168 7.12565 42.7476 6.82292 42.5327 6.5625C42.3244 6.29557 42.0575 6.16211 41.7319 6.16211C40.8075 6.19466 39.9676 6.4388 39.2124 6.89453C38.4572 7.34375 37.8094 7.92969 37.269 8.65234C36.7287 9.375 36.312 10.166 36.019 11.0254C35.7326 11.8783 35.5894 12.7246 35.5894 13.5645C35.5894 14.7363 35.7749 15.7096 36.146 16.4844C36.5171 17.2526 37.0249 17.8288 37.6694 18.2129C38.314 18.5905 39.0464 18.7793 39.8667 18.7793C40.8563 18.7793 41.9175 18.5124 43.0503 17.9785C44.1896 17.4382 45.3029 16.6439 46.3901 15.5957V16.6797C45.1336 17.8711 43.8543 18.8151 42.5522 19.5117C41.2502 20.2083 39.9676 20.5566 38.7046 20.5566ZM48.353 20.2832C47.6434 20.2832 47.0737 20.1139 46.644 19.7754C46.2144 19.4303 45.9019 18.9974 45.7065 18.4766C45.5177 17.9557 45.4233 17.4316 45.4233 16.9043C45.4233 15.791 45.6805 14.8372 46.1948 14.043C46.7091 13.2487 47.4285 12.64 48.353 12.2168C49.284 11.7936 50.3615 11.582 51.5854 11.582C51.7157 11.582 51.7873 11.6243 51.8003 11.709C51.8003 11.8066 51.7905 11.8848 51.771 11.9434C51.758 11.9954 51.6961 12.0573 51.5854 12.1289C50.6414 12.1289 49.8634 12.3307 49.2515 12.7344C48.646 13.1315 48.1968 13.6556 47.9038 14.3066C47.6108 14.9577 47.4644 15.6608 47.4644 16.416C47.4644 17.1842 47.6466 17.7604 48.0112 18.1445C48.3823 18.5286 48.8055 18.7207 49.2808 18.7207C49.5868 18.7207 49.9058 18.6263 50.2378 18.4375C50.5698 18.2487 50.8953 17.946 51.2144 17.5293C50.7391 17.2363 50.3778 16.8652 50.1304 16.416C49.883 15.9603 49.7593 15.5143 49.7593 15.0781C49.7593 14.5964 49.9058 14.1862 50.1987 13.8477C50.4982 13.5091 50.98 13.3398 51.644 13.3398C52.23 13.3398 52.6499 13.5091 52.9038 13.8477C53.1577 14.1862 53.2847 14.5898 53.2847 15.0586C53.2847 15.4362 53.1968 15.8203 53.021 16.2109C52.8517 16.6016 52.6141 16.9401 52.3081 17.2266H52.3765C52.7606 17.2266 53.1447 17.0605 53.5288 16.7285C53.9129 16.39 54.3426 15.9766 54.8179 15.4883V16.5625C54.4338 17.0833 54.0106 17.4447 53.5483 17.6465C53.0926 17.8483 52.7052 17.9492 52.3862 17.9492C52.2821 17.9492 52.1226 17.9362 51.9077 17.9102C50.9051 19.4922 49.7202 20.2832 48.353 20.2832ZM51.771 16.875C51.9012 16.7318 52.0314 16.4844 52.1616 16.1328C52.2918 15.7747 52.3569 15.4557 52.3569 15.1758C52.3569 14.9284 52.2983 14.7168 52.1812 14.541C52.0705 14.3652 51.8621 14.2773 51.5562 14.2773C51.2762 14.2773 51.0744 14.3685 50.9507 14.5508C50.827 14.7331 50.7651 14.9577 50.7651 15.2246C50.7651 15.498 50.8595 15.7943 51.0483 16.1133C51.2437 16.4323 51.4845 16.6862 51.771 16.875ZM58.5093 20.2832C58.1707 20.2832 57.9559 20.1953 57.8647 20.0195C57.7736 19.8438 57.728 19.6842 57.728 19.541C57.728 19.0202 57.7996 18.4928 57.9429 17.959C58.0926 17.4251 58.2651 16.9141 58.4604 16.4258C58.6558 15.9375 58.825 15.4948 58.9683 15.0977C59.118 14.7005 59.1929 14.3815 59.1929 14.1406C59.1929 13.9714 59.1538 13.8411 59.0757 13.75C58.9976 13.6523 58.9097 13.6035 58.812 13.6035C58.493 13.6035 58.1707 13.7728 57.8452 14.1113C57.5197 14.4499 57.2039 14.8861 56.8979 15.4199C56.5985 15.9538 56.3218 16.5169 56.0679 17.1094C55.8205 17.7018 55.6089 18.2585 55.4331 18.7793C55.2638 19.2936 55.1434 19.7005 55.0718 20H53.2065C53.2131 19.7005 53.2554 19.3099 53.3335 18.8281C53.4051 18.3464 53.5028 17.8255 53.6265 17.2656C53.7567 16.6992 53.8934 16.1361 54.0366 15.5762C54.1799 15.0163 54.3231 14.502 54.4663 14.0332C54.6095 13.5579 54.7365 13.1803 54.8472 12.9004C54.9774 12.5553 55.1694 12.3405 55.4233 12.2559C55.6772 12.1647 55.9735 12.1191 56.312 12.1191H56.9663C56.9663 12.1191 56.9272 12.2493 56.8491 12.5098C56.7775 12.7702 56.6831 13.0957 56.5659 13.4863C56.4552 13.877 56.3381 14.2708 56.2144 14.668C56.0972 15.0586 55.9963 15.3906 55.9116 15.6641C56.1069 15.2995 56.3674 14.8958 56.6929 14.4531C57.0249 14.0104 57.3993 13.5872 57.8159 13.1836C58.2326 12.7799 58.6688 12.4479 59.1245 12.1875C59.5802 11.9271 60.0295 11.7969 60.4722 11.7969C61.1102 11.7969 61.4292 12.1777 61.4292 12.9395C61.4292 13.1413 61.3836 13.418 61.2925 13.7695C61.2013 14.1211 61.0874 14.5052 60.9507 14.9219C60.814 15.332 60.674 15.7389 60.5308 16.1426C60.394 16.5397 60.2801 16.8913 60.189 17.1973C60.0978 17.4967 60.0522 17.7051 60.0522 17.8223C60.0522 17.9395 60.0913 17.998 60.1694 17.998C60.2541 17.998 60.368 17.9525 60.5112 17.8613C60.5959 17.8027 60.7391 17.6823 60.9409 17.5C61.1427 17.3112 61.3641 17.0996 61.605 16.8652C61.8524 16.6309 62.0835 16.4095 62.2983 16.2012C62.5197 15.9928 62.689 15.8398 62.8062 15.7422V16.8359C62.6499 16.9922 62.4285 17.2103 62.1421 17.4902C61.8556 17.7637 61.5366 18.0632 61.1851 18.3887C60.8335 18.7077 60.4819 19.0104 60.1304 19.2969C59.7853 19.5833 59.4663 19.8177 59.1733 20C58.8869 20.1888 58.6655 20.2832 58.5093 20.2832Z" fill="black"/>
</svg>
