<svg width="272" height="57" viewBox="0 0 272 57" fill="none" xmlns="http://www.w3.org/2000/svg">
<path d="M29.8774 51.4556C27.8657 51.4556 25.9321 51.0162 24.0767 50.1373C22.2407 49.2779 20.6001 47.8619 19.1548 45.8892C17.4946 48.2525 15.7368 49.7564 13.8813 50.4009C12.0454 51.065 10.0825 51.397 7.99268 51.397C6.52783 51.397 5.229 51.0357 4.09619 50.313C2.98291 49.5904 2.104 48.692 1.45947 47.6177C0.814941 46.5435 0.492676 45.4693 0.492676 44.3951C0.492676 43.2623 0.785645 42.4029 1.37158 41.817C1.95752 41.2115 2.70947 40.8013 3.62744 40.5865C4.56494 40.3521 5.52197 40.2349 6.49854 40.2349C6.49854 40.7232 6.45947 41.2213 6.38135 41.7291C6.32275 42.2173 6.29346 42.7447 6.29346 43.3111C6.29346 44.6588 6.5083 45.8795 6.93799 46.9732C7.36768 48.0474 8.31494 48.5845 9.77979 48.5845C10.522 48.5845 11.2446 48.3306 11.9478 47.8228C12.6704 47.315 13.2466 46.5728 13.6763 45.5963C13.9497 45.0298 14.4771 43.7213 15.2583 41.6705C16.0591 39.6197 16.9575 36.524 17.9536 32.3834L21.4399 14.3951C21.5571 14.0435 21.8599 13.7896 22.3481 13.6334C22.856 13.4771 23.3931 13.3795 23.9595 13.3404C24.5259 13.2818 24.9458 13.2525 25.2192 13.2525H27.9731C27.4458 16.2994 26.9966 19.3658 26.6255 22.4517C26.2544 25.5377 25.688 28.7017 24.9263 31.9439C24.1646 35.1666 22.9341 38.5357 21.2349 42.0513C21.6255 43.2037 22.2603 44.2388 23.1392 45.1568C24.0376 46.0552 25.063 46.7681 26.2153 47.2955C27.3677 47.8033 28.5103 48.0572 29.6431 48.0572C31.3813 48.0572 33.0903 47.5787 34.77 46.6216C36.4497 45.6646 37.9634 44.2974 39.311 42.5201C40.6782 40.7232 41.7622 38.5845 42.563 36.1041C43.3833 33.6041 43.7935 30.8209 43.7935 27.7545C43.7935 25.2545 43.4712 22.8814 42.8267 20.6353C42.1821 18.3697 41.1763 16.3677 39.8091 14.6295C38.4419 12.8716 36.6646 11.4947 34.4771 10.4986C32.3091 9.48297 29.7017 8.97516 26.6548 8.97516C24.4673 8.97516 22.3091 9.30719 20.1802 9.97125C18.0708 10.6353 16.147 11.5142 14.4087 12.608C12.6899 13.7017 11.313 14.9029 10.2778 16.2115C9.26221 17.5201 8.75439 18.8091 8.75439 20.0787C8.75439 21.0943 9.12549 22.0611 9.86768 22.9791C10.6099 23.897 11.8403 24.688 13.5591 25.3521C13.5591 26.3091 13.4712 27.2759 13.2954 28.2525C13.1196 29.2095 12.9536 29.8248 12.7974 30.0982C9.77002 29.1412 7.55322 27.7935 6.14697 26.0552C4.74072 24.2974 4.0376 22.4322 4.0376 20.4595C4.0376 18.6822 4.55518 16.9048 5.59033 15.1275C6.64502 13.3502 8.24658 11.7193 10.395 10.2349C12.5435 8.75055 15.2876 7.55914 18.6274 6.66071C21.9673 5.76227 25.9224 5.31305 30.4927 5.31305C34.1255 5.31305 37.2603 5.92828 39.897 7.15875C42.5337 8.38922 44.6919 10.0103 46.3716 12.022C48.0708 14.0142 49.3208 16.192 50.1216 18.5552C50.9419 20.9185 51.3521 23.233 51.3521 25.4986C51.3521 29.0728 50.8149 32.4322 49.7407 35.5767C48.6665 38.7017 47.1528 41.4556 45.1997 43.8384C43.2661 46.2213 40.9907 48.0865 38.3735 49.4341C35.7759 50.7818 32.9438 51.4556 29.8774 51.4556ZM61.1665 50.6939C58.8032 50.6939 56.9185 49.9127 55.5122 48.3502C54.106 46.7877 53.4028 44.7466 53.4028 42.2271C53.4028 40.1177 53.7446 38.0474 54.4282 36.0162C55.1313 33.9849 56.1177 32.1588 57.3872 30.5377C58.6763 28.897 60.1997 27.5982 61.9575 26.6412C63.7153 25.6646 65.6587 25.1763 67.7876 25.1763C69.7017 25.1763 71.3325 25.5474 72.6802 26.2896C74.0278 27.0318 74.7017 28.3795 74.7017 30.3326C74.7017 31.8365 74.272 33.2232 73.4126 34.4927C72.5728 35.7427 71.4888 36.7486 70.1606 37.5103C68.8325 38.2525 67.4263 38.6236 65.9419 38.6236C65.1216 38.6236 64.2134 38.3795 63.2173 37.8912C62.2407 37.4029 61.3813 36.5923 60.6392 35.4595C59.7993 37.2173 59.3794 38.9361 59.3794 40.6158C59.3794 41.7877 59.5161 42.8912 59.7896 43.9263C60.0825 44.942 60.5903 45.772 61.313 46.4166C62.0356 47.0611 63.0317 47.3834 64.3013 47.3834C65.2192 47.3834 66.2446 47.0123 67.3774 46.2701C68.5103 45.5279 69.6821 44.6002 70.8931 43.4869C72.104 42.3541 73.2856 41.2017 74.438 40.0298C75.5903 38.858 76.6353 37.8326 77.5728 36.9537V40.1763C74.8774 43.3404 72.1821 45.8892 69.4868 47.8228C66.811 49.7369 64.0376 50.6939 61.1665 50.6939ZM66.4106 36.1041C67.563 36.1041 68.5493 35.5377 69.3696 34.4048C70.1899 33.272 70.6001 32.022 70.6001 30.6548C70.6001 29.5416 70.356 28.7896 69.8677 28.399C69.3794 28.0084 68.7056 27.813 67.8462 27.813C66.6938 27.813 65.6782 28.1451 64.7993 28.8091C63.9204 29.4732 63.1978 30.2349 62.6313 31.0943C62.0845 31.9341 61.7036 32.647 61.4888 33.233C62.1724 34.1314 62.9438 34.8345 63.8032 35.3423C64.6821 35.8502 65.5513 36.1041 66.4106 36.1041ZM81.2935 50.6353C80.063 50.6353 79.0278 49.8443 78.188 48.2623C77.3677 46.6607 76.7427 44.5806 76.313 42.022C75.9028 39.4634 75.6978 36.7486 75.6978 33.8775C75.6978 33.3306 75.7075 32.4713 75.7271 31.2994C75.7661 30.1275 75.8833 28.8873 76.0786 27.5787C76.1177 27.2271 76.3716 26.9537 76.8403 26.7584C77.3286 26.5435 77.8657 26.397 78.4517 26.3189C79.0571 26.2408 79.5845 26.192 80.0337 26.1724C80.4829 26.1529 80.6978 26.1431 80.6782 26.1431H83.022C82.9048 26.7681 82.7778 27.6275 82.6411 28.7213C82.5044 29.815 82.3774 30.9869 82.2603 32.2369C82.1626 33.4869 82.1138 34.6588 82.1138 35.7525C82.1138 37.647 82.2603 39.4048 82.5532 41.0259C82.8462 42.6275 83.2173 43.9166 83.6665 44.8931C84.1353 45.8697 84.604 46.358 85.0728 46.358C85.3657 46.358 85.7075 46.1138 86.0981 45.6255C86.5083 45.1373 86.9282 44.5513 87.3579 43.8677C87.8071 43.1841 88.2173 42.5201 88.5884 41.8755C88.9595 41.231 89.2427 40.7525 89.438 40.44C89.3989 40.44 89.3794 40.1568 89.3794 39.5904C89.3794 38.2623 89.4673 36.7779 89.6431 35.1373C89.8384 33.4966 90.1216 31.9244 90.4927 30.4205C90.8833 28.897 91.3813 27.647 91.9868 26.6705C92.6118 25.6744 93.3638 25.1763 94.2427 25.1763C94.7896 25.1763 95.1704 25.44 95.3853 25.9673C95.6196 26.4752 95.7368 27.1588 95.7368 28.0181C95.7368 29.1314 95.5903 30.4205 95.2974 31.8853C95.0044 33.3502 94.6626 34.7955 94.272 36.2213C93.8813 37.6275 93.5103 38.858 93.1587 39.9127C92.8071 40.9673 92.5728 41.6412 92.4556 41.9341L93.0415 43.5455C93.6665 43.4283 94.604 42.7545 95.854 41.524C97.104 40.274 98.7056 38.6724 100.659 36.7193V40.0005C99.6821 41.0162 98.7056 42.0123 97.729 42.9888C96.772 43.9459 95.8638 44.7369 95.0044 45.3619C94.1646 45.9869 93.4321 46.2994 92.8071 46.2994C92.4165 46.2994 92.0161 46.0064 91.606 45.4205C91.1958 44.815 90.854 44.2095 90.5806 43.6041C89.7407 45.108 88.9399 46.3873 88.1782 47.442C87.4165 48.4771 86.5083 49.2681 85.4536 49.815C84.3989 50.3619 83.0122 50.6353 81.2935 50.6353ZM115.249 51.4556C112.553 51.4556 110.219 50.938 108.247 49.9029C106.274 48.8873 104.653 47.5201 103.383 45.8013C102.114 44.063 101.167 42.1197 100.542 39.9713C99.9165 37.8228 99.604 35.6158 99.604 33.3502C99.604 31.0259 99.9263 28.5748 100.571 25.9966C101.235 23.4185 102.231 20.9088 103.559 18.4673C104.907 16.0259 106.596 13.8189 108.627 11.8463C110.659 9.85406 113.051 8.27203 115.805 7.10016C118.579 5.90875 121.713 5.31305 125.209 5.31305C127.202 5.31305 128.989 5.79156 130.571 6.7486C132.153 7.6861 133.403 8.91656 134.321 10.44C135.258 11.9634 135.727 13.5748 135.727 15.274C135.727 15.7818 135.649 16.231 135.493 16.6216C135.356 16.9927 135.073 17.2857 134.643 17.5005C133.374 18.1451 131.889 18.9459 130.19 19.9029C128.491 20.8404 126.792 21.7779 125.092 22.7154C123.393 23.6334 121.899 24.3951 120.61 25.0005C120.375 25.1177 120.151 25.1763 119.936 25.1763C119.624 25.1763 119.37 25.0591 119.174 24.8248C118.999 24.5709 118.911 24.2877 118.911 23.9752C118.911 23.4869 119.262 22.9986 119.965 22.5103C120.668 22.022 121.528 21.5338 122.543 21.0455C123.579 20.5377 124.614 20.0298 125.649 19.522C126.684 18.9947 127.553 18.4478 128.256 17.8814C128.959 17.315 129.311 16.7291 129.311 16.1236C129.292 16.1236 129.204 15.733 129.047 14.9517C128.891 14.1509 128.627 13.233 128.256 12.1978C127.885 11.1627 127.377 10.2545 126.733 9.47321C126.108 8.67242 125.307 8.27203 124.331 8.27203C121.557 8.36969 119.038 9.10211 116.772 10.4693C114.506 11.817 112.563 13.5748 110.942 15.7427C109.321 17.9107 108.071 20.2838 107.192 22.8619C106.333 25.4205 105.903 27.9595 105.903 30.4791C105.903 33.9947 106.459 36.9146 107.573 39.2388C108.686 41.5435 110.209 43.272 112.143 44.4244C114.077 45.5572 116.274 46.1236 118.735 46.1236C121.704 46.1236 124.887 45.3228 128.286 43.7213C131.704 42.1002 135.043 39.7173 138.305 36.5728V39.8248C134.536 43.399 130.698 46.231 126.792 48.3209C122.885 50.4107 119.038 51.4556 115.249 51.4556ZM144.194 50.6353C142.065 50.6353 140.356 50.1275 139.067 49.1119C137.778 48.0767 136.84 46.7779 136.254 45.2154C135.688 43.6529 135.405 42.0806 135.405 40.4986C135.405 37.1588 136.176 34.2974 137.719 31.9146C139.262 29.5318 141.42 27.7056 144.194 26.4361C146.987 25.1666 150.219 24.5318 153.891 24.5318C154.282 24.5318 154.497 24.6588 154.536 24.9127C154.536 25.2056 154.506 25.44 154.448 25.6158C154.409 25.772 154.223 25.9576 153.891 26.1724C151.059 26.1724 148.725 26.7779 146.889 27.9888C145.073 29.1802 143.725 30.7525 142.846 32.7056C141.967 34.6588 141.528 36.7681 141.528 39.0338C141.528 41.3384 142.075 43.067 143.168 44.2193C144.282 45.3716 145.551 45.9478 146.977 45.9478C147.895 45.9478 148.852 45.6646 149.848 45.0982C150.844 44.5318 151.821 43.6236 152.778 42.3736C151.352 41.4947 150.268 40.3814 149.526 39.0338C148.784 37.6666 148.413 36.3287 148.413 35.0201C148.413 33.5748 148.852 32.3443 149.731 31.3287C150.629 30.313 152.075 29.8052 154.067 29.8052C155.825 29.8052 157.084 30.313 157.846 31.3287C158.608 32.3443 158.989 33.5552 158.989 34.9615C158.989 36.0943 158.725 37.2466 158.198 38.4185C157.69 39.5904 156.977 40.606 156.059 41.4654H156.264C157.417 41.4654 158.569 40.9673 159.721 39.9713C160.874 38.9556 162.163 37.7154 163.588 36.2505V39.4732C162.436 41.0357 161.167 42.1197 159.78 42.7252C158.413 43.3306 157.25 43.6334 156.293 43.6334C155.981 43.6334 155.502 43.5943 154.858 43.5162C151.85 48.2623 148.295 50.6353 144.194 50.6353ZM154.448 40.4107C154.838 39.981 155.229 39.2388 155.62 38.1841C156.01 37.1099 156.206 36.1529 156.206 35.313C156.206 34.5709 156.03 33.9361 155.678 33.4088C155.346 32.8814 154.721 32.6177 153.803 32.6177C152.963 32.6177 152.358 32.8912 151.987 33.438C151.616 33.9849 151.43 34.6588 151.43 35.4595C151.43 36.2798 151.713 37.1685 152.28 38.1255C152.866 39.0826 153.588 39.8443 154.448 40.4107ZM174.663 50.6353C173.647 50.6353 173.002 50.3716 172.729 49.8443C172.456 49.317 172.319 48.8384 172.319 48.4088C172.319 46.8463 172.534 45.2642 172.963 43.6627C173.413 42.0611 173.93 40.5279 174.516 39.063C175.102 37.5982 175.61 36.2701 176.04 35.0787C176.489 33.8873 176.713 32.9302 176.713 32.2076C176.713 31.6998 176.596 31.3091 176.362 31.0357C176.127 30.7427 175.864 30.5963 175.571 30.5963C174.614 30.5963 173.647 31.1041 172.67 32.1197C171.694 33.1353 170.747 34.4439 169.829 36.0455C168.93 37.647 168.1 39.3365 167.338 41.1138C166.596 42.8912 165.961 44.5611 165.434 46.1236C164.926 47.6666 164.565 48.8873 164.35 49.7857H158.754C158.774 48.8873 158.901 47.7154 159.135 46.2701C159.35 44.8248 159.643 43.2623 160.014 41.5826C160.405 39.8834 160.815 38.1939 161.245 36.5142C161.674 34.8345 162.104 33.2916 162.534 31.8853C162.963 30.4595 163.344 29.3267 163.676 28.4869C164.067 27.4517 164.643 26.8072 165.405 26.5533C166.167 26.2798 167.055 26.1431 168.071 26.1431H170.034C170.034 26.1431 169.917 26.5338 169.682 27.315C169.467 28.0963 169.184 29.0728 168.833 30.2447C168.5 31.4166 168.149 32.5982 167.778 33.7896C167.426 34.9615 167.124 35.9576 166.87 36.7779C167.456 35.6841 168.237 34.4732 169.213 33.1451C170.209 31.817 171.333 30.5474 172.583 29.3365C173.833 28.1255 175.141 27.1295 176.508 26.3482C177.875 25.567 179.223 25.1763 180.551 25.1763C182.465 25.1763 183.422 26.3189 183.422 28.6041C183.422 29.2095 183.286 30.0396 183.012 31.0943C182.739 32.149 182.397 33.3013 181.987 34.5513C181.577 35.7818 181.157 37.0025 180.727 38.2134C180.317 39.4048 179.975 40.4595 179.702 41.3775C179.428 42.2759 179.292 42.9009 179.292 43.2525C179.292 43.6041 179.409 43.7798 179.643 43.7798C179.897 43.7798 180.239 43.6431 180.668 43.3697C180.922 43.1939 181.352 42.8326 181.958 42.2857C182.563 41.7193 183.227 41.0845 183.95 40.3814C184.692 39.6783 185.385 39.0142 186.03 38.3892C186.694 37.7642 187.202 37.3052 187.553 37.0123V40.2935C187.084 40.7623 186.42 41.4166 185.561 42.2564C184.702 43.0767 183.745 43.9752 182.69 44.9517C181.635 45.9088 180.581 46.817 179.526 47.6763C178.491 48.5357 177.534 49.2388 176.655 49.7857C175.795 50.3521 175.131 50.6353 174.663 50.6353ZM199.213 50.6353C198.198 50.6353 197.553 50.3716 197.28 49.8443C197.006 49.317 196.87 48.8384 196.87 48.4088C196.87 46.8463 197.084 45.2642 197.514 43.6627C197.963 42.0611 198.481 40.5279 199.067 39.063C199.653 37.5982 200.161 36.2701 200.59 35.0787C201.04 33.8873 201.264 32.9302 201.264 32.2076C201.264 31.6998 201.147 31.3091 200.913 31.0357C200.678 30.7427 200.415 30.5963 200.122 30.5963C199.165 30.5963 198.198 31.1041 197.221 32.1197C196.245 33.1353 195.297 34.4439 194.379 36.0455C193.481 37.647 192.651 39.3365 191.889 41.1138C191.147 42.8912 190.512 44.5611 189.985 46.1236C189.477 47.6666 189.116 48.8873 188.901 49.7857H183.305C183.325 48.8873 183.452 47.7154 183.686 46.2701C183.901 44.8248 184.194 43.2623 184.565 41.5826C184.956 39.8834 185.366 38.1939 185.795 36.5142C186.225 34.8345 186.655 33.2916 187.084 31.8853C187.514 30.4595 187.895 29.3267 188.227 28.4869C188.618 27.4517 189.194 26.8072 189.956 26.5533C190.717 26.2798 191.606 26.1431 192.622 26.1431H194.584C194.584 26.1431 194.467 26.5338 194.233 27.315C194.018 28.0963 193.735 29.0728 193.383 30.2447C193.051 31.4166 192.7 32.5982 192.329 33.7896C191.977 34.9615 191.674 35.9576 191.42 36.7779C192.006 35.6841 192.788 34.4732 193.764 33.1451C194.76 31.817 195.883 30.5474 197.133 29.3365C198.383 28.1255 199.692 27.1295 201.059 26.3482C202.426 25.567 203.774 25.1763 205.102 25.1763C207.016 25.1763 207.973 26.3189 207.973 28.6041C207.973 29.2095 207.836 30.0396 207.563 31.0943C207.29 32.149 206.948 33.3013 206.538 34.5513C206.127 35.7818 205.708 37.0025 205.278 38.2134C204.868 39.4048 204.526 40.4595 204.252 41.3775C203.979 42.2759 203.842 42.9009 203.842 43.2525C203.842 43.6041 203.959 43.7798 204.194 43.7798C204.448 43.7798 204.79 43.6431 205.219 43.3697C205.473 43.1939 205.903 42.8326 206.508 42.2857C207.114 41.7193 207.778 41.0845 208.5 40.3814C209.243 39.6783 209.936 39.0142 210.581 38.3892C211.245 37.7642 211.752 37.3052 212.104 37.0123V40.2935C211.635 40.7623 210.971 41.4166 210.112 42.2564C209.252 43.0767 208.295 43.9752 207.241 44.9517C206.186 45.9088 205.131 46.817 204.077 47.6763C203.042 48.5357 202.084 49.2388 201.206 49.7857C200.346 50.3521 199.682 50.6353 199.213 50.6353ZM217.436 50.6939C215.073 50.6939 213.188 49.9127 211.782 48.3502C210.375 46.7877 209.672 44.7466 209.672 42.2271C209.672 40.1177 210.014 38.0474 210.698 36.0162C211.401 33.9849 212.387 32.1588 213.657 30.5377C214.946 28.897 216.469 27.5982 218.227 26.6412C219.985 25.6646 221.928 25.1763 224.057 25.1763C225.971 25.1763 227.602 25.5474 228.95 26.2896C230.297 27.0318 230.971 28.3795 230.971 30.3326C230.971 31.8365 230.542 33.2232 229.682 34.4927C228.842 35.7427 227.758 36.7486 226.43 37.5103C225.102 38.2525 223.696 38.6236 222.211 38.6236C221.391 38.6236 220.483 38.3795 219.487 37.8912C218.51 37.4029 217.651 36.5923 216.909 35.4595C216.069 37.2173 215.649 38.9361 215.649 40.6158C215.649 41.7877 215.786 42.8912 216.059 43.9263C216.352 44.942 216.86 45.772 217.583 46.4166C218.305 47.0611 219.301 47.3834 220.571 47.3834C221.489 47.3834 222.514 47.0123 223.647 46.2701C224.78 45.5279 225.952 44.6002 227.163 43.4869C228.374 42.3541 229.555 41.2017 230.708 40.0298C231.86 38.858 232.905 37.8326 233.842 36.9537V40.1763C231.147 43.3404 228.452 45.8892 225.756 47.8228C223.081 49.7369 220.307 50.6939 217.436 50.6939ZM222.68 36.1041C223.833 36.1041 224.819 35.5377 225.639 34.4048C226.459 33.272 226.87 32.022 226.87 30.6548C226.87 29.5416 226.625 28.7896 226.137 28.399C225.649 28.0084 224.975 27.813 224.116 27.813C222.963 27.813 221.948 28.1451 221.069 28.8091C220.19 29.4732 219.467 30.2349 218.901 31.0943C218.354 31.9341 217.973 32.647 217.758 33.233C218.442 34.1314 219.213 34.8345 220.073 35.3423C220.952 35.8502 221.821 36.1041 222.68 36.1041ZM237.329 50.6353C234.965 50.6353 233.247 49.9029 232.172 48.438C231.098 46.9537 230.561 45.147 230.561 43.0181C230.561 41.1431 230.922 39.1705 231.645 37.1002C232.387 35.0298 233.432 33.0963 234.78 31.2994C236.127 29.483 237.709 28.0084 239.526 26.8755C241.362 25.7427 243.374 25.1763 245.561 25.1763C246.245 25.1763 247.045 25.2545 247.963 25.4107C248.881 25.567 249.682 25.899 250.366 26.4068C251.049 26.9146 251.391 27.7056 251.391 28.7798C251.391 29.6197 251.02 30.3228 250.278 30.8892C249.555 31.4556 248.637 31.7388 247.524 31.7388C247.114 31.7388 246.782 31.5533 246.528 31.1822C246.293 30.8111 246.049 30.3814 245.795 29.8931C245.561 29.3853 245.258 28.9459 244.887 28.5748C244.516 28.2037 243.999 28.0181 243.334 28.0181C242.456 28.0181 241.625 28.3892 240.844 29.1314C240.083 29.8736 239.409 30.8404 238.823 32.0318C238.237 33.2037 237.778 34.483 237.446 35.8697C237.133 37.2564 236.977 38.5943 236.977 39.8834C236.977 41.4849 237.27 42.8521 237.856 43.9849C238.442 45.0982 239.409 45.6548 240.756 45.6548C242.768 45.6548 245.034 44.8638 247.553 43.2818C250.073 41.6802 252.485 39.5318 254.79 36.8365V40.1177C253.833 41.4068 252.661 42.6763 251.274 43.9263C249.887 45.1763 248.393 46.3091 246.792 47.3248C245.209 48.3209 243.598 49.1216 241.958 49.7271C240.336 50.3326 238.793 50.6353 237.329 50.6353ZM255.815 50.6353C254.428 50.6353 253.5 50.1568 253.032 49.1998C252.563 48.2232 252.329 47.0806 252.329 45.772C252.329 44.6783 252.426 43.6138 252.622 42.5787C252.817 41.524 252.973 40.6841 253.09 40.0591C253.305 38.9849 253.481 38.1158 253.618 37.4517C253.774 36.7877 253.94 36.1236 254.116 35.4595C254.292 34.7759 254.516 33.8873 254.79 32.7935C255.063 31.6998 255.424 30.1861 255.874 28.2525C255.268 28.2525 254.663 28.2232 254.057 28.1646C253.452 28.106 253.149 27.7154 253.149 26.9927C253.149 26.7779 253.188 26.6119 253.266 26.4947C253.364 26.358 253.686 26.2603 254.233 26.2017L256.694 25.9673C257.397 23.6627 258.129 21.563 258.891 19.6685C259.653 17.774 260.629 16.2603 261.821 15.1275C263.012 13.9947 264.604 13.4283 266.596 13.4283L266.713 13.5455C266.713 13.6236 266.557 14.1021 266.245 14.981C265.932 15.8599 265.542 16.9537 265.073 18.2623C264.624 19.5709 264.165 20.9185 263.696 22.3052C263.247 23.692 262.875 24.9127 262.583 25.9673L271.518 25.5572L270.874 26.6119C270.659 27.022 270.024 27.3248 268.969 27.5201C267.934 27.7154 266.772 27.8423 265.483 27.9009C264.194 27.94 263.071 27.9595 262.114 27.9595C262.094 27.9595 261.967 28.399 261.733 29.2779C261.499 30.1373 261.206 31.231 260.854 32.5591C260.502 33.8873 260.151 35.2642 259.799 36.69C259.448 38.0963 259.155 39.3755 258.92 40.5279C258.686 41.6802 258.569 42.4908 258.569 42.9595C258.569 43.6822 258.637 44.317 258.774 44.8638C258.911 45.3912 259.321 45.6548 260.004 45.6548C260.375 45.6548 261.088 45.2642 262.143 44.483C263.198 43.7017 264.506 42.6275 266.069 41.2603C267.631 39.8736 269.331 38.3111 271.167 36.5728V39.8248C270.112 40.9576 268.94 42.1588 267.651 43.4283C266.362 44.6783 265.024 45.8502 263.637 46.9439C262.27 48.0377 260.913 48.9263 259.565 49.6099C258.237 50.2935 256.987 50.6353 255.815 50.6353Z" fill="black"/>
</svg>
